<?xml version="1.0" encoding="utf-8"?>
<!-- Generator: Adobe Illustrator 19.0.0, SVG Export Plug-In . SVG Version: 6.00 Build 0)  -->
<svg version="1.1" id="Layer_1" xmlns="http://www.w3.org/2000/svg" xmlns:xlink="http://www.w3.org/1999/xlink" x="0px" y="0px"
	 width="100px" height="100px" viewBox="-74 0 100 100" style="enable-background:new -74 0 100 100;" xml:space="preserve">
<g>
	<path d="M-14.4,98c-0.7,0-1.5-0.2-2.1-0.8c-0.8-0.8-0.9-2-0.9-2.8V79.2c0-2.6-0.4-4.7-1.3-6.4c-0.3-0.7-0.4-1.2-0.4-1.6v-1l0.7-0.7
		c0.3-0.3,0.8-0.7,1.7-1.1l0.3-0.1c3.5-0.9,6.5-2.2,9.1-3.9c4.6-3,7.4-6.5,8.8-11C3.4,47.3,2,42-2.6,36.9c-1.3-1.5-1.5-2.8-0.9-4.6
		l0-0.1c1-2.5,0.9-5-0.2-7.5c-1.4,0.7-2.8,1.6-4.1,2.7c-0.3,0.3-0.6,0.6-0.9,0.9c-0.2,0.2-0.3,0.3-0.5,0.5c-1,1.2-2.5,1.6-4,1
		c-3.6-1.3-7.7-1.9-11.9-1.8c-3.4,0.1-6.6,0.7-9.4,1.7c-1.8,0.7-3.4,0.3-4.5-1.2c-1.4-1.6-3.2-2.9-5.6-3.9c-0.5,0.9-0.8,2-1,3.5
		c-0.2,1.7,0.1,3.2,0.7,4.6l0.1,0.3c0.5,1.4,0.1,2.7-1,3.8c-3.6,3.8-5.2,8.2-4.8,13.1c0.3,3.8,1.9,7.4,4.9,10.5
		c3.2,3.4,7,5.7,11.7,7.1c2.3,0.8,3,1.7,3,4.1l0,1.8c-0.4,3.3-2.8,4.9-7,4.8c0,0,0,0,0,0c-2.4,0-4.9-0.9-7.4-2.7l-0.7-0.5
		c1.2,1.5,2.3,2.7,3.3,3.7l0.1,0.1c1.4,1.4,3.5,2.2,5.8,2.1c0.8-0.1,1.6,0,2.2,0c0.2,0,0.5,0,0.7,0c2.1,0,3.3,1.3,3.3,3.3v10.1
		c0,0.8-0.1,1.9-0.9,2.7c-1.1,1.1-2.6,0.8-3.2,0.7c-4.2-1-8.2-2.5-11.9-4.6c-8.1-4.4-14.5-10.7-19.1-18.6
		c-3.6-6.3-5.8-13.2-6.3-20.5l0,0c-0.1-0.3-0.1-0.6-0.1-0.9v-5.5c0-0.4,0.1-0.6,0.1-0.8l0-0.2c0-0.3,0.1-0.5,0.1-0.7
		c0-0.3,0.1-0.6,0.1-1c0.1-1.3,0.3-2.5,0.5-3.7c2-10.3,6.9-19.1,14.6-26.3C-50,8.5-41.7,4.4-32.3,2.8c6.9-1.3,14.2-0.9,21.5,1
		C-3,5.9,4.1,10,10.2,16c9.9,9.7,15,23.4,14,37.5l0,0C23.5,63.6,19.8,73.1,13.5,81c-0.8,1-1.6,1.9-2.5,2.9
		C4.4,90.8-3.7,95.5-13.1,97.8l-0.2,0C-13.6,97.9-14,98-14.4,98z M-13.5,72.6c0.7,2,1,4.2,1,6.7v13.2c7.7-2.2,14.3-6.3,19.8-12
		c0.8-0.8,1.5-1.7,2.2-2.6c5.7-7.1,9-15.7,9.6-24.8l0,0c0.9-12.6-3.7-24.9-12.5-33.5c-5.5-5.4-11.8-9.1-18.9-11
		c-6.6-1.7-13-2-19.3-0.9c-8.4,1.5-15.8,5.2-22,10.9c-6.9,6.4-11.3,14.3-13.1,23.5c-0.2,1.1-0.4,2.2-0.5,3.3l0,0.2
		c0,0.2-0.1,0.5-0.1,0.7c0,0.3-0.1,0.6-0.1,0.9c0,0.2-0.1,0.4-0.1,0.6V53c0,0.2,0.1,0.5,0.1,0.7c0.5,6.5,2.4,12.7,5.7,18.3
		c4.1,7.1,9.9,12.7,17.2,16.7c2.8,1.5,5.7,2.7,8.7,3.6v-6.5c-0.3,0-0.6,0-0.8,0l-0.2,0c-3.8,0.1-7.2-1.1-9.6-3.5
		c-1.3-1.2-2.6-2.6-4-4.5c-0.2-0.2-0.4-0.4-0.5-0.6c-0.2-0.2-0.4-0.5-0.6-0.7l-0.4-0.4c-1.1-1.2-1.7-2-2.1-2.6l-4.8-6.9l8.4,0.9
		c1.7,0.2,2.8,0.4,3.8,1c0.9,0.6,1.8,1.2,2.6,1.9l1.4,1c1.7,1.2,3.2,1.7,4.6,1.7c1.2,0,1.7-0.1,1.9-0.2c0,0,0-0.1,0-0.1v-0.7
		c-5.2-1.7-9.8-4.4-13.4-8.3c-3.8-4-5.9-8.6-6.2-13.6c-0.5-6,1.5-11.6,5.8-16.4c-0.7-1.9-1-4-0.7-6.2c0.3-2.6,0.9-4.6,2.2-6.5
		l0.2-0.2l2.2-2.4l2.6,1.2c3.2,1.3,5.7,3,7.7,5.2c3.2-1.1,6.7-1.7,10.4-1.8c4.6-0.1,8.9,0.5,12.9,1.8c0.4-0.4,0.8-0.8,1.3-1.3
		c2.1-1.7,4.2-3,6.6-4l3.2-1.3l1.5,3.1c2.2,3.9,2.6,8.2,1.1,12.3c5.6,6.3,7.3,13.4,5,21C4.5,60.4,1,64.9-4.6,68.5
		C-7.3,70.3-10.2,71.6-13.5,72.6z"/>
</g>
</svg>
