<?xml version="1.0" standalone="no"?><svg xmlns="http://www.w3.org/2000/svg" viewBox="0 0 1440 320"><path fill="rgba(71, 35, 148)" fill-opacity="1" d="M0,32L30,69.3C60,107,120,181,180,186.7C240,192,300,128,360,133.3C420,139,480,213,540,224C600,235,660,181,720,154.7C780,128,840,128,900,144C960,160,1020,192,1080,208C1140,224,1200,224,1260,202.7C1320,181,1380,139,1410,117.3L1440,96L1440,0L1410,0C1380,0,1320,0,1260,0C1200,0,1140,0,1080,0C1020,0,960,0,900,0C840,0,780,0,720,0C660,0,600,0,540,0C480,0,420,0,360,0C300,0,240,0,180,0C120,0,60,0,30,0L0,0Z"></path></svg>