<?xml version="1.0" standalone="no"?><svg xmlns="http://www.w3.org/2000/svg" viewBox="0 0 1440 320"><path fill="#6C63FF" fill-opacity="1" d="M0,192L30,165.3C60,139,120,85,180,64C240,43,300,53,360,74.7C420,96,480,128,540,128C600,128,660,96,720,106.7C780,117,840,171,900,160C960,149,1020,75,1080,58.7C1140,43,1200,85,1260,106.7C1320,128,1380,128,1410,128L1440,128L1440,0L1410,0C1380,0,1320,0,1260,0C1200,0,1140,0,1080,0C1020,0,960,0,900,0C840,0,780,0,720,0C660,0,600,0,540,0C480,0,420,0,360,0C300,0,240,0,180,0C120,0,60,0,30,0L0,0Z"></path></svg>